<svg width="154" height="23" viewBox="0 0 154 23" xmlns="http://www.w3.org/2000/svg"><g id="svgGroup" stroke-linecap="round" fill-rule="evenodd" font-size="9pt" stroke="#fff" stroke-width="0.25mm" fill="white" style="stroke:#fff;stroke-width:0.25mm;fill:white"><path d="M 134.01 21.42 L 132.21 21.42 L 132.21 6.84 L 133.95 6.84 L 133.95 8.76 L 134.31 8.76 A 3.85 3.85 0 0 1 134.873 8 Q 135.24 7.609 135.75 7.245 A 3.354 3.354 0 0 1 136.714 6.782 Q 137.155 6.646 137.687 6.587 A 7.952 7.952 0 0 1 138.57 6.54 A 6.332 6.332 0 0 1 139.755 6.645 Q 140.459 6.779 141.019 7.085 A 3.598 3.598 0 0 1 141.435 7.35 Q 142.53 8.16 143.01 9.3 L 143.37 9.3 A 4.861 4.861 0 0 1 144.699 7.558 A 5.81 5.81 0 0 1 144.96 7.35 A 3.656 3.656 0 0 1 146.095 6.79 Q 146.603 6.634 147.217 6.575 A 8.167 8.167 0 0 1 147.99 6.54 A 6.168 6.168 0 0 1 149.311 6.675 A 4.731 4.731 0 0 1 150.6 7.155 Q 151.71 7.77 152.34 8.865 A 4.689 4.689 0 0 1 152.906 10.527 A 6.106 6.106 0 0 1 152.97 11.43 L 152.97 21.42 L 151.17 21.42 L 151.17 11.61 A 4.181 4.181 0 0 0 151.032 10.506 A 3.099 3.099 0 0 0 150.225 9.105 Q 149.326 8.206 147.735 8.163 A 5.989 5.989 0 0 0 147.57 8.16 A 4.437 4.437 0 0 0 146.064 8.407 A 3.911 3.911 0 0 0 144.66 9.285 A 3.594 3.594 0 0 0 143.714 10.878 Q 143.546 11.439 143.504 12.11 A 7.376 7.376 0 0 0 143.49 12.57 L 143.49 21.42 L 141.69 21.42 L 141.69 11.61 A 4.181 4.181 0 0 0 141.552 10.506 A 3.099 3.099 0 0 0 140.745 9.105 Q 139.846 8.206 138.255 8.163 A 5.989 5.989 0 0 0 138.09 8.16 A 4.437 4.437 0 0 0 136.584 8.407 A 3.911 3.911 0 0 0 135.18 9.285 A 3.594 3.594 0 0 0 134.234 10.878 Q 134.066 11.439 134.024 12.11 A 7.376 7.376 0 0 0 134.01 12.57 L 134.01 21.42 Z M 0 13.29 L 0 8.55 A 12.811 12.811 0 0 1 0.216 6.123 Q 0.49 4.705 1.112 3.607 A 6.503 6.503 0 0 1 2.205 2.175 A 7.389 7.389 0 0 1 6.117 0.177 A 10.628 10.628 0 0 1 8.1 0 Q 11.76 0 13.695 2.055 A 6.864 6.864 0 0 1 15.358 5.204 Q 15.613 6.253 15.629 7.485 A 12.765 12.765 0 0 1 15.63 7.65 L 15.63 7.8 L 13.71 7.8 L 13.71 7.59 A 7.971 7.971 0 0 0 13.502 5.719 A 5.675 5.675 0 0 0 12.345 3.375 A 4.271 4.271 0 0 0 10.296 2.042 Q 9.577 1.816 8.702 1.759 A 9.325 9.325 0 0 0 8.1 1.74 A 7.679 7.679 0 0 0 6.193 1.964 A 5.292 5.292 0 0 0 3.555 3.51 A 5.807 5.807 0 0 0 2.256 5.877 Q 2.004 6.746 1.941 7.782 A 11.684 11.684 0 0 0 1.92 8.49 L 1.92 13.35 A 10.155 10.155 0 0 0 2.096 15.302 Q 2.457 17.141 3.555 18.33 A 5.357 5.357 0 0 0 6.485 19.944 A 7.944 7.944 0 0 0 8.1 20.1 A 8.058 8.058 0 0 0 9.677 19.956 Q 10.611 19.77 11.322 19.341 A 4.042 4.042 0 0 0 12.345 18.465 A 5.733 5.733 0 0 0 13.549 15.912 A 8.153 8.153 0 0 0 13.71 14.25 L 13.71 13.8 L 15.63 13.8 L 15.63 14.19 A 10.457 10.457 0 0 1 15.386 16.519 Q 15 18.211 14.003 19.434 A 6.51 6.51 0 0 1 13.695 19.785 A 6.231 6.231 0 0 1 10.743 21.514 Q 9.559 21.84 8.1 21.84 A 10.138 10.138 0 0 1 5.542 21.534 A 7.263 7.263 0 0 1 2.205 19.665 A 6.937 6.937 0 0 1 0.461 16.706 Q 0.123 15.607 0.033 14.28 A 14.661 14.661 0 0 1 0 13.29 Z M 40.35 21.42 L 38.55 21.42 L 38.55 6.84 L 40.29 6.84 L 40.29 9.54 L 40.65 9.54 A 4.973 4.973 0 0 1 41.595 8.177 A 6.626 6.626 0 0 1 42.42 7.455 A 4.052 4.052 0 0 1 43.603 6.863 Q 44.601 6.54 45.99 6.54 A 6.656 6.656 0 0 1 48.049 6.852 A 6.083 6.083 0 0 1 48.9 7.2 A 5.066 5.066 0 0 1 51.003 9.174 A 6.053 6.053 0 0 1 51.015 9.195 Q 51.81 10.53 51.81 12.54 L 51.81 21.42 L 50.01 21.42 L 50.01 12.66 A 7.564 7.564 0 0 0 49.915 11.417 Q 49.673 9.965 48.81 9.21 Q 47.64 8.186 45.699 8.161 A 7.582 7.582 0 0 0 45.6 8.16 A 5.608 5.608 0 0 0 43.656 8.487 A 4.985 4.985 0 0 0 41.85 9.645 Q 40.35 11.13 40.35 14.13 L 40.35 21.42 Z M 79.23 21.42 L 77.43 21.42 L 77.43 6.84 L 79.17 6.84 L 79.17 9.54 L 79.53 9.54 A 4.973 4.973 0 0 1 80.475 8.177 A 6.626 6.626 0 0 1 81.3 7.455 A 4.052 4.052 0 0 1 82.483 6.863 Q 83.481 6.54 84.87 6.54 A 6.656 6.656 0 0 1 86.929 6.852 A 6.083 6.083 0 0 1 87.78 7.2 A 5.066 5.066 0 0 1 89.883 9.174 A 6.053 6.053 0 0 1 89.895 9.195 Q 90.69 10.53 90.69 12.54 L 90.69 21.42 L 88.89 21.42 L 88.89 12.66 A 7.564 7.564 0 0 0 88.795 11.417 Q 88.553 9.965 87.69 9.21 Q 86.52 8.186 84.579 8.161 A 7.582 7.582 0 0 0 84.48 8.16 A 5.608 5.608 0 0 0 82.536 8.487 A 4.985 4.985 0 0 0 80.73 9.645 Q 79.23 11.13 79.23 14.13 L 79.23 21.42 Z M 95.34 15.72 L 95.34 6.84 L 97.14 6.84 L 97.14 15.6 A 7.418 7.418 0 0 0 97.235 16.83 Q 97.478 18.27 98.34 19.035 A 4.079 4.079 0 0 0 100.13 19.944 Q 100.781 20.1 101.55 20.1 A 5.608 5.608 0 0 0 103.495 19.774 A 4.985 4.985 0 0 0 105.3 18.615 Q 106.8 17.13 106.8 14.13 L 106.8 6.84 L 108.6 6.84 L 108.6 21.42 L 106.86 21.42 L 106.86 18.72 L 106.5 18.72 A 4.973 4.973 0 0 1 105.556 20.083 A 6.626 6.626 0 0 1 104.73 20.805 A 4.052 4.052 0 0 1 103.548 21.398 Q 102.55 21.72 101.16 21.72 Q 99.6 21.72 98.265 21.06 Q 96.93 20.4 96.135 19.065 Q 95.34 17.73 95.34 15.72 Z M 113.67 15.72 L 113.67 6.84 L 115.47 6.84 L 115.47 15.6 A 7.418 7.418 0 0 0 115.565 16.83 Q 115.808 18.27 116.67 19.035 A 4.079 4.079 0 0 0 118.46 19.944 Q 119.111 20.1 119.88 20.1 A 5.608 5.608 0 0 0 121.825 19.774 A 4.985 4.985 0 0 0 123.63 18.615 Q 125.13 17.13 125.13 14.13 L 125.13 6.84 L 126.93 6.84 L 126.93 21.42 L 125.19 21.42 L 125.19 18.72 L 124.83 18.72 A 4.973 4.973 0 0 1 123.886 20.083 A 6.626 6.626 0 0 1 123.06 20.805 A 4.052 4.052 0 0 1 121.878 21.398 Q 120.88 21.72 119.49 21.72 Q 117.93 21.72 116.595 21.06 Q 115.26 20.4 114.465 19.065 Q 113.67 17.73 113.67 15.72 Z M 65.55 21.42 L 61.77 21.42 A 3.628 3.628 0 0 1 61.104 21.363 Q 60.735 21.294 60.448 21.142 A 1.731 1.731 0 0 1 60.015 20.82 A 1.968 1.968 0 0 1 59.527 19.939 Q 59.444 19.63 59.432 19.262 A 3.839 3.839 0 0 1 59.43 19.14 L 59.43 8.46 L 54.75 8.46 L 54.75 6.84 L 59.43 6.84 L 59.43 1.38 L 61.23 1.38 L 61.23 6.84 L 66.33 6.84 L 66.33 8.46 L 61.23 8.46 L 61.23 18.9 A 1.296 1.296 0 0 0 61.275 19.256 Q 61.389 19.656 61.797 19.762 A 1.326 1.326 0 0 0 62.13 19.8 L 65.55 19.8 L 65.55 21.42 Z M 19.23 14.31 L 19.23 13.95 A 9.372 9.372 0 0 1 19.445 11.901 A 7.343 7.343 0 0 1 20.145 10.005 Q 21.06 8.31 22.725 7.365 A 7.202 7.202 0 0 1 25.277 6.513 A 9.331 9.331 0 0 1 26.61 6.42 A 8.828 8.828 0 0 1 28.631 6.642 A 6.989 6.989 0 0 1 30.495 7.365 Q 32.16 8.31 33.075 10.005 A 7.539 7.539 0 0 1 33.882 12.469 A 9.805 9.805 0 0 1 33.99 13.95 L 33.99 14.31 A 9.372 9.372 0 0 1 33.776 16.36 A 7.343 7.343 0 0 1 33.075 18.255 Q 32.16 19.95 30.495 20.895 A 7.202 7.202 0 0 1 27.944 21.748 A 9.331 9.331 0 0 1 26.61 21.84 A 8.828 8.828 0 0 1 24.59 21.619 A 6.989 6.989 0 0 1 22.725 20.895 Q 21.06 19.95 20.145 18.255 A 7.539 7.539 0 0 1 19.338 15.792 A 9.805 9.805 0 0 1 19.23 14.31 Z M 32.19 14.25 L 32.19 14.01 A 7.886 7.886 0 0 0 31.979 12.135 A 5.503 5.503 0 0 0 30.69 9.675 A 4.949 4.949 0 0 0 27.724 8.124 A 7.106 7.106 0 0 0 26.61 8.04 A 6.432 6.432 0 0 0 24.81 8.28 A 4.891 4.891 0 0 0 22.545 9.675 A 5.54 5.54 0 0 0 21.193 12.353 A 8.003 8.003 0 0 0 21.03 14.01 L 21.03 14.25 A 7.811 7.811 0 0 0 21.243 16.126 A 5.485 5.485 0 0 0 22.545 18.585 A 5.019 5.019 0 0 0 25.654 20.158 A 7.096 7.096 0 0 0 26.61 20.22 A 6.558 6.558 0 0 0 28.389 19.992 A 4.835 4.835 0 0 0 30.69 18.585 A 5.556 5.556 0 0 0 32.025 15.926 A 8.064 8.064 0 0 0 32.19 14.25 Z M 72.15 21.42 L 70.35 21.42 L 70.35 6.84 L 72.15 6.84 L 72.15 21.42 Z M 70.626 4.201 A 1.596 1.596 0 0 0 71.25 4.32 A 1.979 1.979 0 0 0 71.419 4.313 A 1.457 1.457 0 0 0 72.375 3.87 A 1.513 1.513 0 0 0 72.702 3.368 A 1.651 1.651 0 0 0 72.81 2.76 A 2.005 2.005 0 0 0 72.799 2.541 A 1.467 1.467 0 0 0 72.375 1.635 A 1.427 1.427 0 0 0 71.778 1.275 A 1.784 1.784 0 0 0 71.25 1.2 Q 70.59 1.2 70.14 1.635 A 1.419 1.419 0 0 0 69.77 2.224 A 1.724 1.724 0 0 0 69.69 2.76 A 1.919 1.919 0 0 0 69.69 2.781 A 1.505 1.505 0 0 0 70.14 3.87 A 1.512 1.512 0 0 0 70.626 4.201 Z" vector-effect="non-scaling-stroke"/></g></svg>